<svg xmlns="http://www.w3.org/2000/svg" width="13" height="12" viewBox="0 0 13 12">
    <path fill="#FFF" fill-rule="nonzero" d="M1.456 2.571a.589.589 0 0 0-.584.59v7.66C.872 11.47 1.398 12 2.04 12h7.596a.589.589 0 0 0 0-1.179H2.625a.589.589 0 0 1-.585-.589V3.161a.589.589 0 0 0-.584-.59zM11.601 0H4.59C3.947 0 3.42.53 3.42 1.179V8.25c0 .648.526 1.179 1.169 1.179h7.01c.643 0 1.17-.53 1.17-1.179V1.179C12.77.53 12.242 0 11.6 0zm-1.126 5.143h-4.76c-.326 0-.594-.193-.594-.429 0-.235.268-.428.595-.428h4.759c.327 0 .595.193.595.428 0 .236-.268.429-.595.429zM7.954 7.714H5.687c-.311 0-.566-.193-.566-.428 0-.236.255-.429.566-.429h2.267c.311 0 .566.193.566.429 0 .235-.255.428-.566.428zm2.52-5.143H5.717c-.327 0-.595-.192-.595-.428s.268-.429.595-.429h4.759c.327 0 .595.193.595.429s-.268.428-.595.428z"/>
</svg>
