<svg xmlns="http://www.w3.org/2000/svg" width="21" height="18" viewBox="0 0 21 18">
    <path fill="#BCC3C6" fill-rule="nonzero" d="M11.035.404L5.991 5.448a1.82 1.82 0 0 0-.528 1.284v9.096c0 1.001.82 1.82 1.82 1.82h8.195c.729 0 1.384-.436 1.675-1.101l2.969-6.929c.764-1.803-.556-3.806-2.513-3.806h-5.144l.864-4.17a1.373 1.373 0 0 0-.373-1.247 1.355 1.355 0 0 0-1.921.009zM1.821 17.649c1.001 0 1.82-.82 1.82-1.821V8.544c0-1.002-.819-1.821-1.82-1.821C.819 6.723 0 7.543 0 8.543v7.285c0 1.001.82 1.82 1.821 1.82z"/>
</svg>
