<svg xmlns="http://www.w3.org/2000/svg" width="18" height="24" viewBox="0 0 18 24">
    <path fill="#576870" fill-rule="nonzero" d="M9 13.5a2.257 2.257 0 0 0-2.25 2.25A2.257 2.257 0 0 0 9 18a2.257 2.257 0 0 0 2.25-2.25A2.257 2.257 0 0 0 9 13.5zm6.75-5.625h-1.125v-2.25A5.627 5.627 0 0 0 9 0a5.62 5.62 0 0 0-5.445 4.219 1.12 1.12 0 0 0 .81 1.372 1.125 1.125 0 0 0 1.372-.81A3.37 3.37 0 0 1 9 2.25a3.385 3.385 0 0 1 3.375 3.375v2.25H2.25A2.257 2.257 0 0 0 0 10.125v11.25a2.257 2.257 0 0 0 2.25 2.25h13.5a2.257 2.257 0 0 0 2.25-2.25v-11.25a2.257 2.257 0 0 0-2.25-2.25zm0 12.375c0 .619-.506 1.125-1.125 1.125H3.375A1.128 1.128 0 0 1 2.25 20.25v-9c0-.619.506-1.125 1.125-1.125h11.25c.619 0 1.125.506 1.125 1.125v9z"/>
</svg>
