<svg xmlns="http://www.w3.org/2000/svg" width="20" height="20" viewBox="0 0 20 20">
    <path fill="#DCE141" fill-rule="nonzero" d="M8.966 1.004v17.64a.995.995 0 0 1-1.206.98c-4.453-1-7.76-5.01-7.76-9.8 0-4.79 3.307-8.8 7.76-9.8a.995.995 0 0 1 1.206.98zm2.022 0v6.81c0 .55.448 1 .996 1h6.764c.637 0 1.116-.59.976-1.22-.847-3.76-3.785-6.72-7.52-7.57a1 1 0 0 0-1.216.98zm0 10.83v6.81a1 1 0 0 0 1.215.98c3.746-.85 6.684-3.82 7.531-7.58a1.01 1.01 0 0 0-.976-1.22h-6.764c-.558.01-1.006.46-1.006 1.01z"/>
</svg>
