<svg xmlns="http://www.w3.org/2000/svg" width="32" height="24" viewBox="0 0 32 24">
    <path fill="#576870" fill-rule="nonzero" d="M20.364 11.52c3.214 0 5.818-2.578 5.818-5.76S23.578 0 20.364 0c-3.215 0-5.819 2.578-5.819 5.76s2.604 5.76 5.819 5.76zM7.273 8.64V5.76c0-.792-.655-1.44-1.455-1.44s-1.454.648-1.454 1.44v2.88h-2.91C.655 8.64 0 9.288 0 10.08c0 .792.655 1.44 1.455 1.44h2.909v2.88c0 .792.654 1.44 1.454 1.44.8 0 1.455-.648 1.455-1.44v-2.88h2.909c.8 0 1.454-.648 1.454-1.44 0-.792-.654-1.44-1.454-1.44h-2.91zm13.09 5.76c-3.883 0-11.636 1.93-11.636 5.76v1.44c0 .792.655 1.44 1.455 1.44h20.363c.8 0 1.455-.648 1.455-1.44v-1.44c0-3.83-7.753-5.76-11.636-5.76z"/>
</svg>
