<svg xmlns="http://www.w3.org/2000/svg" width="16" height="16" viewBox="0 0 16 16">
    <path fill="#50B7D8" fill-rule="nonzero" d="M.727 2.91A.73.73 0 0 0 0 3.635v10.91C0 15.345.655 16 1.455 16h10.909a.73.73 0 0 0 .727-.727.73.73 0 0 0-.727-.728H2.182a.73.73 0 0 1-.727-.727V3.636a.73.73 0 0 0-.728-.727zM14.545 0H4.364c-.8 0-1.455.655-1.455 1.455v10.181c0 .8.655 1.455 1.455 1.455h10.181c.8 0 1.455-.655 1.455-1.455V1.455C16 .655 15.345 0 14.545 0zm-.727 11.636H5.091a.73.73 0 0 1-.727-.727V2.182c0-.4.327-.727.727-.727h8.727c.4 0 .727.327.727.727v8.727a.73.73 0 0 1-.727.727z"/>
</svg>
