<svg xmlns="http://www.w3.org/2000/svg" width="12" height="14" viewBox="0 0 12 14">
    <path fill="#FFF" fill-rule="nonzero" d="M11.157 2.333c-.466 0-.842.391-.842.875v2.917a.284.284 0 0 1-.281.292.284.284 0 0 1-.281-.292V1.458c0-.484-.376-.875-.843-.875-.466 0-.842.391-.842.875v4.667a.284.284 0 0 1-.281.292.284.284 0 0 1-.281-.292V.875C7.506.391 7.13 0 6.663 0c-.466 0-.842.39-.842.875v5.244a.284.284 0 0 1-.281.292.284.284 0 0 1-.281-.292V2.625c0-.484-.376-.875-.843-.875-.466 0-.842.39-.842.875v6.656L1.259 7.91a.817.817 0 0 0-1 .128.895.895 0 0 0-.017 1.243l3.81 4.019c.42.45.993.7 1.6.7h4.101C10.994 14 12 12.956 12 11.667V3.208c0-.484-.376-.875-.843-.875z"/>
</svg>
