<svg xmlns="http://www.w3.org/2000/svg" width="24" height="16" viewBox="0 0 24 16">
    <path fill="#BCC3C6" fill-rule="nonzero" d="M16.3 6.545a3.253 3.253 0 0 0 3.25-3.272A3.253 3.253 0 0 0 16.3 0a3.262 3.262 0 0 0-3.26 3.273 3.262 3.262 0 0 0 3.26 3.272zm-8.693 0a3.253 3.253 0 0 0 3.25-3.272A3.253 3.253 0 0 0 7.606 0a3.262 3.262 0 0 0-3.26 3.273 3.262 3.262 0 0 0 3.26 3.272zm0 2.182C5.075 8.727 0 10.004 0 12.545v1.637c0 .6.489 1.09 1.087 1.09h13.04c.598 0 1.087-.49 1.087-1.09v-1.637c0-2.541-5.075-3.818-7.607-3.818zm8.694 0c-.315 0-.674.022-1.054.055.022.01.032.033.043.043 1.24.906 2.098 2.117 2.098 3.72v1.637c0 .382-.076.753-.196 1.09h5.63c.597 0 1.086-.49 1.086-1.09v-1.637c0-2.541-5.075-3.818-7.607-3.818z"/>
</svg>
