<svg xmlns="http://www.w3.org/2000/svg" width="21" height="20" viewBox="0 0 21 20">
    <path fill="#DCE141" fill-rule="nonzero" d="M10.843 0C5.344 0 .88 4.48.88 10s4.463 10 9.962 10 9.962-4.48 9.962-10-4.463-10-9.962-10zm.996 17H9.847v-2h1.992v2zm2.062-7.75l-.896.92c-.498.51-.857.97-1.036 1.69-.08.32-.13.68-.13 1.14H9.847v-.5a4 4 0 0 1 1.166-2.83l1.235-1.26c.458-.44.677-1.1.547-1.8a1.988 1.988 0 0 0-1.384-1.53 2.007 2.007 0 0 0-2.46 1.27c-.12.37-.43.65-.818.65h-.299c-.577 0-.976-.56-.816-1.12a3.997 3.997 0 0 1 3.217-2.83c1.514-.24 2.959.55 3.855 1.8 1.176 1.63.827 3.38-.189 4.4z"/>
</svg>
