<svg xmlns="http://www.w3.org/2000/svg" width="21" height="20" viewBox="0 0 21 20">
    <path fill="#BCC3C6" fill-rule="nonzero" d="M17.975 10.98c.04-.32.07-.64.07-.98 0-.34-.03-.66-.07-.98l2.102-1.65c.189-.15.239-.42.12-.64l-1.993-3.46c-.12-.22-.389-.3-.608-.22l-2.48 1a7.271 7.271 0 0 0-1.684-.98L13.054.42a.486.486 0 0 0-.488-.42H8.58a.486.486 0 0 0-.488.42l-.379 2.65c-.607.25-1.165.59-1.683.98l-2.48-1a.485.485 0 0 0-.608.22L.95 6.73c-.13.22-.07.49.12.64l2.102 1.65c-.04.32-.07.65-.07.98 0 .33.03.66.07.98L1.07 12.63c-.19.15-.24.42-.12.64l1.993 3.46c.12.22.388.3.607.22l2.48-1c.519.4 1.077.73 1.684.98l.379 2.65c.03.24.239.42.488.42h3.985c.249 0 .458-.18.488-.42l.378-2.65a7.646 7.646 0 0 0 1.684-.98l2.48 1c.23.09.488 0 .608-.22l1.992-3.46c.12-.22.07-.49-.12-.64l-2.101-1.65zm-7.402 2.52A3.497 3.497 0 0 1 7.087 10c0-1.93 1.564-3.5 3.486-3.5A3.497 3.497 0 0 1 14.06 10c0 1.93-1.564 3.5-3.487 3.5z"/>
</svg>
