<svg xmlns="http://www.w3.org/2000/svg" width="61" height="48" viewBox="0 0 61 48">
    <g fill="none" fill-rule="evenodd">
        <path fill="#D6DD33" d="M.875 47.99h12.306V35.066H.875z"/>
        <path fill="#FFF" d="M45.906 43.8v-3.225h10.026l-9.91-12.808-11.955 15.44c-.289.377-.727.593-1.192.593-.463 0-.901-.216-1.191-.593l-11.95-15.44-11.955 15.44-2.384-2.04 13.146-16.98c.29-.376.73-.593 1.193-.593.463 0 .901.217 1.19.593l11.951 15.44 11.954-15.44c.29-.376.729-.593 1.192-.593.465 0 .903.217 1.192.593l13.143 16.98a1.67 1.67 0 0 1 .195 1.713 1.53 1.53 0 0 1-1.387.92H45.906zM22.965 17.134H42.79L32.875 4.325l-9.91 12.81zm23.057 3.227H19.733a1.53 1.53 0 0 1-1.387-.92c-.258-.56-.18-1.23.196-1.713L31.684.745c.58-.753 1.804-.753 2.384 0l13.146 16.983c.376.483.452 1.149.195 1.712a1.53 1.53 0 0 1-1.387.92z"/>
        <path fill="#FFF" d="M40.367 43.795h3.156V40.57h-3.156z"/>
    </g>
</svg>
